<?xml version="1.0" encoding="UTF-8"?> <svg xmlns="http://www.w3.org/2000/svg" width="23" height="26" viewBox="0 0 23 26" fill="none"><path fill-rule="evenodd" clip-rule="evenodd" d="M13.5947 1.27246C12.1998 0.465578 10.4868 0.465578 9.0919 1.27246L2.37061 5.16027C0.958427 5.97713 0.0870361 7.49645 0.0870361 9.14183V16.8425C0.0870361 18.4879 0.958427 20.0072 2.37061 20.8241L9.0919 24.7119C10.4868 25.5188 12.1998 25.5188 13.5947 24.7119L20.316 20.8241C21.7282 20.0072 22.5996 18.4879 22.5996 16.8425V9.14183C22.5996 7.49645 21.7282 5.97713 20.316 5.16027L13.5947 1.27246ZM12.1211 4.72435C11.6423 4.43385 11.0443 4.43385 10.5656 4.72435L5.53993 7.77413C5.17297 7.99681 5.17297 8.53471 5.53993 8.7574L10.5656 11.8072C11.0443 12.0977 11.6423 12.0977 12.1211 11.8072L17.1467 8.7574C17.5137 8.53471 17.5137 7.99681 17.1467 7.77413L12.1211 4.72435Z" fill="url(#paint0_linear_2344_2054)"></path><defs><linearGradient id="paint0_linear_2344_2054" x1="12.4831" y1="15.5731" x2="-3.99885" y2="13.0723" gradientUnits="userSpaceOnUse"><stop stop-color="#F2800D"></stop><stop offset="1" stop-color="#FF6D1C"></stop></linearGradient></defs></svg> 